<?xml version="1.0" standalone="no"?>
<!DOCTYPE svg PUBLIC "-//W3C//DTD SVG 20010904//EN"
 "http://www.w3.org/TR/2001/REC-SVG-20010904/DTD/svg10.dtd">
<svg version="1.0" xmlns="http://www.w3.org/2000/svg"
 width="700.000000pt" height="412.000000pt" viewBox="0 0 700.000000 412.000000"
 preserveAspectRatio="xMidYMid meet">
<metadata>
Created by potrace 1.15, written by Peter Selinger 2001-2017
</metadata>
<g transform="translate(0.000000,412.000000) scale(0.100000,-0.100000)"
fill="#000000" stroke="none">
<path d="M2178 3777 l-197 -342 391 -3 c215 -1 393 -1 395 2 3 3 -372 662
-386 678 -3 3 -95 -148 -203 -335z"/>
<path d="M3740 4115 c0 -4 256 -451 264 -462 3 -3 266 455 266 461 0 4 -119 6
-265 6 -146 0 -265 -2 -265 -5z"/>
<path d="M6463 4113 c48 -90 261 -453 265 -453 4 0 66 104 139 230 l132 230
-270 0 c-149 0 -268 -3 -266 -7z"/>
<path d="M4211 3849 c-73 -127 -131 -232 -129 -235 3 -2 124 -3 270 -2 l264 3
-132 228 c-72 125 -133 230 -136 232 -2 2 -64 -99 -137 -226z"/>
<path d="M6252 3848 c-73 -127 -131 -232 -129 -234 2 -3 123 -3 269 -2 l266 3
-130 225 c-71 124 -133 228 -136 232 -4 4 -67 -97 -140 -224z"/>
<path d="M4080 3526 c0 -4 257 -453 264 -463 3 -3 266 455 266 461 0 4 -119 6
-265 6 -146 0 -265 -2 -265 -4z"/>
<path d="M6123 3523 c48 -90 261 -453 265 -453 4 0 19 22 33 48 15 26 74 129
132 230 l106 182 -270 0 c-149 0 -268 -3 -266 -7z"/>
<path d="M4552 3261 c-73 -126 -132 -231 -132 -235 0 -3 121 -6 270 -6 l269 0
-131 228 c-72 125 -133 230 -137 234 -4 4 -66 -95 -139 -221z"/>
<path d="M5912 3259 c-73 -127 -132 -233 -129 -235 2 -2 123 -3 269 -2 l266 3
-130 225 c-71 124 -133 228 -136 232 -4 4 -67 -97 -140 -223z"/>
<path d="M1992 3298 c8 -13 97 -166 198 -341 145 -252 186 -315 195 -305 10
11 340 581 374 646 l12 22 -397 0 -396 0 14 -22z"/>
<path d="M1857 3219 c-14 -24 -102 -177 -196 -339 l-170 -295 386 -3 c212 -1
388 0 390 2 2 2 -79 147 -180 322 -101 176 -188 328 -194 338 -9 17 -13 15
-36 -25z"/>
<path d="M2841 3209 c-17 -30 -105 -182 -195 -339 l-165 -285 386 -3 c212 -1
388 0 390 2 3 3 -367 656 -383 675 -1 1 -16 -21 -33 -50z"/>
<path d="M4420 2936 c0 -2 56 -100 123 -218 68 -117 128 -221 133 -230 8 -14
35 27 142 212 73 126 132 231 132 234 0 4 -119 6 -265 6 -146 0 -265 -2 -265
-4z"/>
<path d="M5783 2933 c48 -91 261 -453 265 -453 7 1 262 442 262 454 0 3 -120
6 -266 6 -146 0 -263 -3 -261 -7z"/>
<path d="M4891 2669 c-73 -127 -131 -232 -129 -235 3 -2 124 -3 270 -2 l266 3
-132 227 c-72 124 -133 229 -137 232 -3 3 -65 -98 -138 -225z"/>
<path d="M5571 2669 c-73 -127 -131 -233 -128 -235 2 -2 123 -3 269 -2 l266 3
-130 225 c-71 124 -133 228 -137 232 -4 4 -67 -96 -140 -223z"/>
<path d="M1501 2438 c33 -63 364 -635 373 -645 8 -9 60 73 204 321 105 184
192 337 192 340 0 3 -176 6 -390 6 l-391 0 12 -22z"/>
<path d="M2494 2433 c26 -50 367 -638 374 -645 6 -6 392 649 392 665 0 4 -176
7 -390 7 l-391 0 15 -27z"/>
<path d="M1189 2063 l-195 -338 199 -3 c109 -1 286 -1 392 0 l194 3 -190 330
c-105 182 -194 333 -198 338 -4 4 -95 -145 -202 -330z"/>
<path d="M3171 2064 c-106 -184 -191 -337 -189 -340 3 -2 179 -3 391 -2 l386
3 -190 330 c-105 182 -193 333 -197 337 -4 4 -95 -143 -201 -328z"/>
<path d="M4774 2323 c8 -16 68 -121 133 -235 l119 -206 132 228 c73 126 132
231 132 234 0 4 -119 6 -265 6 l-266 0 15 -27z"/>
<path d="M5443 2343 c2 -5 61 -108 132 -231 102 -177 131 -220 140 -210 14 15
255 433 255 442 0 3 -120 6 -266 6 -146 0 -263 -3 -261 -7z"/>
<path d="M5231 2079 c-73 -126 -131 -232 -129 -235 3 -2 124 -3 270 -2 l266 3
-130 225 c-71 124 -133 228 -137 232 -4 4 -67 -96 -140 -223z"/>
<path d="M5110 1503 l0 -248 245 245 c135 135 245 246 245 247 0 2 -110 3
-245 3 l-245 0 0 -247z"/>
<path d="M5390 1455 l-245 -245 248 0 247 0 0 245 c0 135 -1 245 -3 245 -1 0
-112 -110 -247 -245z"/>
<path d="M1003 1586 c5 -13 376 -657 382 -664 1 -2 85 140 185 315 101 175
190 328 198 341 l14 22 -392 0 c-331 0 -391 -2 -387 -14z"/>
<path d="M2980 1594 c0 -4 376 -661 385 -672 2 -2 83 136 181 305 98 169 186
323 197 341 l19 32 -391 0 c-215 0 -391 -3 -391 -6z"/>
<path d="M695 1209 c-104 -182 -191 -335 -193 -340 -2 -5 151 -9 387 -9 215 0
391 3 391 7 0 10 -384 673 -390 673 -3 -1 -90 -149 -195 -331z"/>
<path d="M3847 1518 c-45 -70 -377 -652 -374 -655 2 -2 179 -2 393 -1 l390 3
-192 333 c-106 184 -195 336 -198 339 -2 3 -11 -6 -19 -19z"/>
<path d="M5130 893 l0 -248 245 245 c135 135 245 246 245 247 0 2 -110 3 -245
3 l-245 0 0 -247z"/>
<path d="M5420 855 l-245 -245 248 0 247 0 0 245 c0 135 -1 245 -3 245 -1 0
-112 -110 -247 -245z"/>
<path d="M500 744 c0 -11 385 -674 391 -674 3 0 91 147 195 327 104 179 193
332 197 340 7 11 -62 13 -388 13 -217 0 -395 -3 -395 -6z"/>
<path d="M2482 740 c8 -24 384 -670 390 -670 3 0 88 143 189 318 100 174 189
327 197 340 l14 22 -397 0 c-252 0 -395 -4 -393 -10z"/>
<path d="M3470 745 c0 -3 88 -158 196 -345 l197 -340 174 302 c96 167 186 322
199 346 l25 42 -396 0 c-217 0 -395 -2 -395 -5z"/>
<path d="M198 347 l-197 -342 391 -3 c215 -1 393 -1 395 1 2 3 -381 674 -390
684 -1 0 -91 -153 -199 -340z"/>
<path d="M2179 346 l-197 -341 391 -3 c214 -1 392 -1 394 2 3 3 -352 624 -381
667 -9 13 -47 -46 -207 -325z"/>
<path d="M3169 346 l-196 -341 390 -3 c214 -1 392 -1 394 2 3 3 -372 662 -386
677 -3 4 -94 -147 -202 -335z"/>
<path d="M4157 343 l-194 -338 390 -3 c215 -1 392 0 394 2 5 5 -380 675 -388
676 -4 0 -94 -152 -202 -337z"/>
<path d="M5130 288 l0 -253 250 250 c138 137 250 251 250 252 0 2 -112 3 -250
3 l-250 0 0 -252z"/>
<path d="M5420 245 l-245 -245 248 0 247 0 0 245 c0 135 -1 245 -3 245 -1 0
-112 -110 -247 -245z"/>
</g>
</svg>
