<?xml version="1.0" standalone="no"?>
<!DOCTYPE svg PUBLIC "-//W3C//DTD SVG 20010904//EN"
 "http://www.w3.org/TR/2001/REC-SVG-20010904/DTD/svg10.dtd">
<svg version="1.0" xmlns="http://www.w3.org/2000/svg"
 width="700.000000pt" height="480.000000pt" viewBox="0 0 700.000000 480.000000"
 preserveAspectRatio="xMidYMid meet">
<metadata>
Created by potrace 1.15, written by Peter Selinger 2001-2017
</metadata>
<g transform="translate(0.000000,480.000000) scale(0.100000,-0.100000)"
fill="#000000" stroke="none">
<path d="M3740 4144 c0 -18 264 -464 270 -457 4 4 66 110 138 236 l131 227
-270 0 c-148 0 -269 -3 -269 -6z"/>
<path d="M6462 4141 c13 -37 264 -458 270 -453 3 4 64 106 133 227 70 121 129
223 132 228 2 4 -118 7 -267 7 -162 0 -270 -4 -268 -9z"/>
<path d="M2179 3803 l-195 -338 199 -3 c109 -1 286 -1 393 0 l194 3 -191 330
c-104 182 -194 333 -198 338 -4 4 -95 -144 -202 -330z"/>
<path d="M4215 3883 c-72 -124 -131 -230 -133 -235 -2 -4 116 -8 262 -8 146 0
266 2 266 5 0 5 -257 455 -263 462 -1 1 -61 -100 -132 -224z"/>
<path d="M6255 3878 c-71 -123 -130 -226 -132 -230 -2 -5 117 -8 265 -8 l270
0 -131 230 c-73 126 -135 229 -138 230 -4 0 -64 -100 -134 -222z"/>
<path d="M4080 3553 c0 -16 265 -462 271 -455 3 4 65 109 137 235 l131 227
-270 0 c-148 0 -269 -3 -269 -7z"/>
<path d="M6122 3551 c13 -37 264 -458 270 -453 3 4 54 90 113 192 59 102 118
204 131 228 l25 42 -271 0 c-162 0 -270 -4 -268 -9z"/>
<path d="M4555 3292 c-72 -124 -131 -229 -133 -234 -2 -4 116 -8 262 -8 146 0
266 3 266 6 0 6 -231 411 -254 445 -9 14 -34 -22 -141 -209z"/>
<path d="M5950 3352 c-52 -91 -112 -196 -133 -234 l-39 -68 270 0 270 0 -133
231 c-73 127 -135 232 -137 234 -1 1 -46 -72 -98 -163z"/>
<path d="M1983 3343 c23 -41 390 -679 392 -681 2 -3 395 675 395 683 0 3 -178
5 -396 5 -217 0 -393 -3 -391 -7z"/>
<path d="M1682 2944 c-106 -185 -191 -338 -189 -340 2 -2 179 -3 393 -2 l390
3 -193 335 c-106 184 -197 336 -201 337 -4 1 -94 -149 -200 -333z"/>
<path d="M2672 2943 c-106 -184 -191 -337 -189 -339 2 -2 179 -3 394 -2 l389
3 -193 335 c-106 184 -196 336 -201 337 -4 1 -94 -149 -200 -334z"/>
<path d="M4420 2964 c0 -15 265 -463 271 -456 3 4 65 109 137 235 l131 227
-270 0 c-148 0 -269 -2 -269 -6z"/>
<path d="M5782 2961 c13 -36 264 -458 269 -453 4 4 57 95 119 202 62 107 121
210 132 228 l20 32 -272 0 c-162 0 -270 -4 -268 -9z"/>
<path d="M4895 2703 c-71 -124 -131 -230 -133 -235 -2 -4 116 -8 262 -8 146 0
266 3 266 7 0 6 -248 442 -259 455 -3 4 -64 -95 -136 -219z"/>
<path d="M5575 2702 c-71 -124 -131 -229 -133 -234 -2 -4 118 -8 266 -8 l270
0 -133 231 c-73 127 -135 232 -137 234 -1 2 -61 -99 -133 -223z"/>
<path d="M1492 2481 c8 -24 384 -671 389 -671 4 0 38 55 77 123 38 67 126 220
195 340 l126 217 -395 0 c-244 0 -394 -4 -392 -9z"/>
<path d="M2482 2481 c8 -24 384 -670 389 -671 3 0 88 143 189 318 101 174 190
327 198 340 l14 22 -397 0 c-239 0 -395 -4 -393 -9z"/>
<path d="M1188 2087 l-197 -342 391 -3 c215 -1 393 -1 395 2 3 3 -371 660
-386 678 -3 4 -95 -147 -203 -335z"/>
<path d="M3168 2087 l-196 -342 390 -3 c215 -1 393 0 395 2 4 4 -371 662 -386
678 -3 3 -95 -147 -203 -335z"/>
<path d="M4760 2375 c0 -5 257 -454 265 -463 1 -2 16 21 33 50 16 29 77 135
135 236 l106 182 -269 0 c-149 0 -270 -2 -270 -5z"/>
<path d="M5442 2371 c12 -36 264 -458 269 -453 4 4 65 109 137 235 l131 227
-270 0 c-161 0 -269 -4 -267 -9z"/>
<path d="M5232 2108 c-73 -127 -131 -233 -129 -235 2 -2 123 -2 268 -1 l265 3
-132 228 c-73 126 -134 230 -136 232 -2 2 -63 -101 -136 -227z"/>
<path d="M5090 1563 l0 -277 93 90 c50 49 175 173 277 277 l184 187 -277 0
-277 0 0 -277z"/>
<path d="M5395 1550 l-280 -280 283 0 282 0 0 280 c0 154 -1 280 -3 280 -1 0
-128 -126 -282 -280z"/>
<path d="M1002 1608 c8 -13 97 -166 198 -341 101 -175 187 -314 191 -310 6 7
231 394 358 616 l32 57 -396 0 -397 0 14 -22z"/>
<path d="M3077 1448 c58 -101 146 -254 196 -341 71 -122 93 -155 102 -145 10
11 340 581 374 646 l12 22 -395 0 -395 0 106 -182z"/>
<path d="M852 1504 c-22 -38 -111 -190 -196 -339 l-156 -270 386 -3 c213 -1
389 0 391 2 2 2 -79 147 -180 322 -101 176 -188 328 -194 338 -9 17 -15 11
-51 -50z"/>
<path d="M3831 1519 c-17 -30 -105 -182 -195 -339 l-165 -285 386 -3 c212 -1
388 0 391 2 3 4 -368 656 -384 675 -1 1 -16 -21 -33 -50z"/>
<path d="M5385 940 c154 -154 281 -280 282 -280 2 0 3 126 3 280 l0 280 -282
0 -283 0 280 -280z"/>
<path d="M5100 905 l0 -275 277 0 278 0 -275 275 c-151 151 -276 275 -277 275
-2 0 -3 -124 -3 -275z"/>
<path d="M502 762 c8 -21 372 -648 382 -659 8 -9 59 72 201 318 105 182 192
334 193 340 2 5 -147 9 -388 9 -215 0 -390 -4 -388 -8z"/>
<path d="M2491 748 c29 -55 371 -644 377 -650 6 -6 392 649 392 666 0 3 -176
6 -390 6 l-391 0 12 -22z"/>
<path d="M3501 713 c119 -208 352 -609 357 -615 6 -6 392 649 392 665 0 4
-176 7 -391 7 l-390 0 32 -57z"/>
<path d="M199 373 l-195 -338 192 -3 c106 -1 283 -1 393 0 l200 3 -191 330
c-104 182 -193 334 -197 338 -4 4 -95 -144 -202 -330z"/>
<path d="M2179 373 l-195 -338 199 -3 c109 -1 286 -1 392 0 l194 3 -190 330
c-105 182 -194 333 -198 338 -4 4 -95 -145 -202 -330z"/>
<path d="M3168 370 l-196 -340 394 0 395 0 -12 23 c-30 55 -371 643 -377 649
-4 4 -96 -145 -204 -332z"/>
<path d="M4161 374 c-106 -184 -191 -337 -189 -340 3 -2 179 -3 391 -2 l387 3
-190 329 c-104 181 -193 333 -198 338 -4 4 -95 -143 -201 -328z"/>
<path d="M5090 298 l0 -283 280 280 c154 154 280 281 280 282 0 2 -126 3 -280
3 l-280 0 0 -282z"/>
<path d="M5395 280 l-280 -280 283 0 282 0 0 280 c0 154 -1 280 -3 280 -1 0
-128 -126 -282 -280z"/>
</g>
</svg>
