<?xml version="1.0" standalone="no"?>
<!DOCTYPE svg PUBLIC "-//W3C//DTD SVG 20010904//EN"
 "http://www.w3.org/TR/2001/REC-SVG-20010904/DTD/svg10.dtd">
<svg version="1.0" xmlns="http://www.w3.org/2000/svg"
 width="6000.000000pt" height="4000.000000pt" viewBox="0 0 6000.000000 4000.000000"
 preserveAspectRatio="xMidYMid meet">

<g transform="translate(0.000000,4000.000000) scale(0.100000,-0.100000)"
fill="#000000" stroke="none">
<path d="M0 20000 l0 -20000 30000 0 30000 0 0 20000 0 20000 -30000 0 -30000
0 0 -20000z m16990 6975 c19 -3 42 -9 50 -12 8 -3 24 -7 35 -8 111 -13 322
-115 430 -209 70 -60 201 -209 226 -256 59 -113 100 -206 125 -285 26 -83 28
-103 28 -255 1 -166 -10 -256 -42 -359 -9 -29 -22 -55 -28 -58 -7 -2 -10 -13
-7 -23 6 -21 -101 -200 -171 -286 -42 -52 -160 -155 -206 -179 -132 -70 -220
-79 -590 -62 -91 4 -241 10 -334 12 -92 3 -176 10 -186 15 -10 6 -32 10 -49
10 -17 0 -31 4 -31 9 0 6 -8 9 -17 9 -58 -2 -196 102 -294 223 -41 51 -149
247 -149 272 0 10 -4 25 -9 35 -24 44 -51 184 -53 277 -3 113 10 285 22 300 4
6 11 28 15 50 4 22 10 45 14 50 4 6 14 30 21 55 8 25 22 57 32 72 10 14 18 31
18 37 0 6 5 11 10 11 6 0 10 6 10 14 0 27 99 162 173 237 81 80 177 155 247
192 60 31 171 75 190 75 8 0 35 8 58 17 78 28 340 40 462 20z m28190 -586 c76
-14 177 -39 209 -51 14 -6 37 -15 51 -21 39 -15 102 -49 139 -74 19 -13 39
-23 45 -23 20 0 164 -132 207 -190 15 -19 40 -50 58 -69 17 -18 31 -37 31 -43
0 -5 10 -24 23 -41 27 -37 70 -133 88 -197 7 -25 17 -51 22 -58 6 -7 11 -28
12 -45 1 -18 5 -41 10 -52 18 -38 12 -332 -8 -425 -10 -47 -22 -89 -26 -95 -5
-5 -11 -23 -15 -40 -19 -81 -128 -271 -202 -351 -72 -79 -117 -124 -124 -124
-4 0 -18 -10 -32 -22 -23 -23 -58 -41 -128 -71 -72 -31 -156 -38 -383 -32
-122 3 -296 5 -387 5 -319 -1 -443 40 -596 195 -92 93 -140 170 -218 347 -9
20 -16 41 -16 47 0 6 -4 19 -9 29 -13 24 -25 73 -22 95 1 10 -3 25 -11 34 -16
19 -21 323 -5 323 5 0 7 10 3 22 -3 13 -1 41 5 63 25 95 33 121 41 130 4 5 8
15 8 23 0 15 67 154 103 214 34 58 66 96 145 176 39 40 72 78 72 83 0 5 7 9
15 9 8 0 15 5 15 10 0 6 6 10 14 10 8 0 16 4 18 8 5 14 115 81 177 109 86 38
233 81 303 88 35 4 65 8 67 11 8 8 249 2 301 -7z m-21591 -4093 c69 -12 115
-28 194 -68 136 -69 274 -225 326 -368 26 -71 32 -108 37 -229 6 -120 -1 -173
-27 -223 -5 -10 -9 -25 -9 -34 0 -9 -8 -33 -18 -53 -10 -20 -29 -58 -43 -85
-44 -92 -152 -201 -240 -244 -109 -52 -135 -56 -389 -56 -173 0 -214 3 -265
19 -33 10 -63 19 -67 21 -5 1 -9 2 -10 3 -2 2 -14 5 -28 7 -13 2 -27 8 -30 12
-3 4 -17 13 -33 21 -43 23 -142 122 -171 171 -68 117 -113 249 -102 296 4 14
2 24 -4 24 -13 0 -6 147 11 245 6 39 22 87 35 107 13 20 26 48 30 62 3 14 12
30 20 37 8 6 14 17 14 23 0 16 139 166 155 166 7 0 15 6 18 14 14 37 193 116
307 136 48 9 232 6 289 -4z m2197 -289 c32 -38 -4 -27 -65 20 -2 1 2 10 10 19
12 14 14 14 26 -3 7 -10 20 -26 29 -36z m12666 -51 c42 -9 89 -23 105 -31 15
-8 32 -15 36 -15 22 0 158 -92 208 -140 75 -73 153 -204 179 -300 26 -101 33
-266 14 -328 -7 -26 -14 -55 -14 -65 0 -16 -16 -56 -58 -147 -22 -46 -59 -103
-86 -132 -14 -16 -26 -32 -26 -36 0 -5 -20 -23 -45 -42 -25 -19 -45 -36 -45
-39 0 -3 -21 -17 -47 -30 -116 -57 -144 -63 -328 -66 -316 -7 -474 37 -602
163 -114 114 -198 296 -203 442 -3 59 10 193 19 204 5 6 12 31 16 56 4 25 13
55 21 67 8 12 14 27 14 32 0 29 85 147 162 224 92 92 122 110 271 162 128 44
268 51 409 21z m-12312 -499 c16 -13 70 -117 70 -134 0 -5 9 -18 20 -28 11
-10 20 -22 20 -28 0 -14 33 -81 48 -96 7 -7 11 -20 8 -27 -3 -8 -1 -14 4 -14
6 0 10 -7 10 -15 0 -43 -71 21 -102 91 -7 16 -23 46 -35 66 -13 21 -23 51 -23
67 0 16 -7 37 -16 45 -8 9 -12 16 -7 16 4 0 1 6 -7 13 -16 12 -25 57 -12 57 4
0 14 -6 22 -13z m269 -459 c14 -16 20 -28 13 -28 -16 0 -42 29 -42 47 0 9 1
14 3 12 1 -2 13 -16 26 -31z m-1012 -114 c29 -8 65 -21 80 -29 16 -7 45 -21
66 -30 49 -23 175 -141 183 -171 3 -13 10 -24 14 -24 7 0 42 -67 61 -115 39
-98 46 -225 20 -345 -12 -52 -25 -98 -31 -104 -5 -5 -10 -18 -10 -27 0 -10 -3
-19 -7 -21 -5 -1 -17 -21 -28 -42 -27 -54 -106 -138 -163 -175 -26 -17 -51
-34 -57 -38 -5 -5 -14 -8 -20 -8 -5 0 -32 -6 -60 -13 -93 -23 -200 -28 -317
-16 -123 12 -183 26 -239 54 -51 27 -149 109 -149 126 0 7 -4 14 -10 14 -5 0
-10 6 -10 14 0 8 -3 16 -7 18 -21 9 -63 93 -83 164 -23 86 -27 183 -10 274 13
67 58 191 75 205 7 6 15 21 20 34 9 31 160 181 182 181 9 0 24 7 33 15 32 29
154 68 235 75 99 8 164 4 232 -16z m1943 -85 c0 -6 -4 -7 -10 -4 -5 3 -10 11
-10 16 0 6 5 7 10 4 6 -3 10 -11 10 -16z m-700 -59 c0 -5 -4 -10 -10 -10 -5 0
-10 5 -10 10 0 6 5 10 10 10 6 0 10 -4 10 -10z m30 -30 c0 -5 -2 -10 -4 -10
-3 0 -8 5 -11 10 -3 6 -1 10 4 10 6 0 11 -4 11 -10z m740 -20 c0 -5 -2 -10 -4
-10 -3 0 -8 5 -11 10 -3 6 -1 10 4 10 6 0 11 -4 11 -10z m9154 -91 c245 -65
417 -283 431 -544 3 -53 -12 -177 -25 -210 -24 -63 -56 -130 -62 -133 -5 -2
-8 -9 -8 -15 -1 -29 -145 -181 -189 -200 -101 -41 -133 -48 -242 -54 -119 -6
-306 10 -323 27 -6 6 -18 10 -29 10 -26 0 -118 45 -161 79 -50 40 -107 114
-139 181 -41 87 -57 173 -53 291 3 89 8 115 35 184 18 44 38 87 46 95 7 8 15
24 19 35 9 32 136 159 189 189 143 84 344 109 511 65z m-8973 -281 c7 -18 15
-35 18 -38 13 -11 61 -116 61 -132 0 -9 5 -20 11 -24 6 -3 8 -17 4 -31 -4 -16
1 -34 15 -53 11 -15 20 -35 20 -43 0 -7 8 -29 17 -48 9 -18 17 -53 17 -76 1
-24 4 -43 8 -43 4 0 10 -16 14 -35 3 -20 14 -43 23 -52 11 -12 13 -17 3 -21
-14 -4 -17 -32 -3 -32 10 0 9 -55 -1 -65 -10 -10 -45 48 -51 85 -12 83 -28
134 -65 210 -12 25 -22 53 -22 63 0 9 -4 17 -9 17 -5 0 -9 16 -9 35 0 19 -12
57 -26 85 -14 27 -29 67 -32 90 -4 22 -10 43 -15 46 -4 2 -6 11 -3 19 3 7 0
23 -6 34 -11 21 -6 41 9 41 5 0 14 -15 22 -32z m-1141 -289 c66 -23 162 -72
167 -85 3 -8 10 -14 16 -14 11 0 117 -108 117 -120 0 -5 12 -32 26 -60 33 -67
57 -199 48 -265 -4 -27 -7 -57 -5 -67 1 -9 -3 -19 -9 -23 -6 -3 -8 -10 -5 -15
7 -11 -38 -111 -79 -173 -107 -166 -251 -227 -506 -213 -259 14 -413 134 -480
372 -19 67 -22 93 -16 174 4 52 11 99 16 104 6 6 10 20 10 33 0 13 4 23 8 23
5 0 15 18 22 40 7 22 19 45 27 51 7 6 13 17 13 23 0 18 160 166 179 166 9 0
26 7 37 15 59 41 125 54 254 50 69 -2 141 -9 160 -16z m8860 -220 c124 -23
206 -63 286 -139 42 -40 104 -123 104 -139 0 -4 9 -26 20 -49 29 -60 38 -120
34 -227 -3 -78 -9 -108 -35 -172 -18 -43 -38 -83 -44 -88 -7 -6 -15 -20 -19
-33 -13 -40 -122 -141 -180 -167 -102 -45 -230 -56 -401 -35 -182 23 -310 110
-384 262 -48 99 -68 294 -37 360 8 18 23 55 32 82 20 62 83 161 126 201 45 41
104 85 117 85 5 0 22 7 38 15 44 24 85 38 123 43 19 2 37 5 39 7 7 8 129 4
181 -6z m-7469 -367 c-7 -2 -18 1 -23 6 -8 8 -4 9 13 5 13 -4 18 -8 10 -11z
m46 -245 c-2 -6 -9 -13 -17 -15 -7 -3 -10 0 -6 6 3 6 2 13 -4 17 -20 12 -10
26 11 15 11 -6 19 -16 16 -23z m-539 -52 c158 -54 266 -171 312 -338 9 -32 11
-80 7 -148 -6 -118 -3 -122 85 -106 52 9 58 13 75 48 10 22 22 39 26 39 5 0 5
6 1 13 -5 7 0 6 10 -3 17 -14 18 -13 12 16 -6 25 -3 33 10 38 12 5 14 10 7 17
-11 11 -6 56 7 64 4 2 20 -9 35 -25 16 -17 23 -30 17 -30 -7 0 -12 -9 -12 -19
0 -14 -5 -18 -19 -14 -15 4 -20 -2 -24 -29 -2 -18 0 -41 5 -50 6 -12 5 -18 -3
-18 -7 0 -10 -12 -7 -30 3 -20 0 -30 -9 -30 -13 0 -17 -11 -13 -44 1 -10 -3
-28 -9 -40 -6 -12 -20 -47 -32 -79 -11 -31 -31 -70 -44 -85 -12 -15 -32 -43
-43 -64 -11 -20 -29 -46 -39 -59 -88 -108 -139 -160 -192 -197 -34 -23 -60
-39 -57 -33 3 5 -1 14 -9 21 -12 10 -15 38 -15 130 0 65 -2 125 -6 133 -5 15
-24 14 -99 -3 -122 -28 -298 -14 -392 31 -95 46 -182 144 -224 254 -26 65 -34
174 -20 250 23 123 120 281 201 326 22 12 40 27 40 32 0 5 7 7 15 3 8 -3 15
-2 15 3 0 24 114 48 240 50 56 1 94 -5 148 -24z m7011 -145 c9 -4 51 -25 93
-45 74 -36 130 -84 174 -150 41 -60 84 -196 84 -265 0 -44 -16 -134 -30 -165
-5 -11 -12 -31 -16 -45 -10 -38 -92 -156 -134 -194 -36 -32 -65 -49 -135 -75
-32 -12 -225 -32 -238 -24 -11 7 -81 6 -104 -1 -16 -5 -23 -24 -38 -97 -11
-60 -29 -112 -54 -157 -41 -77 -140 -181 -192 -205 -19 -9 -42 -24 -51 -34
-18 -21 -31 -67 -20 -77 8 -9 3 -139 -7 -146 -4 -3 -8 -15 -8 -27 -2 -32 -59
-141 -100 -191 -19 -24 -54 -55 -77 -69 -22 -14 -42 -30 -44 -34 -2 -5 -16 -9
-30 -9 -30 0 -82 -42 -82 -65 0 -18 -38 -20 -92 -5 -20 6 -54 12 -75 14 -104
11 -135 27 -221 110 -46 45 -95 100 -109 124 -14 23 -36 51 -49 61 l-24 19 24
16 c22 14 24 22 24 98 1 104 27 191 84 280 40 62 104 124 152 150 41 22 46 38
40 128 -15 230 110 434 309 506 67 25 78 26 235 32 39 2 42 4 42 30 0 70 63
260 102 308 47 58 112 122 135 134 15 8 39 21 52 30 57 35 116 47 240 48 68 0
131 -3 140 -8z m-6432 -14 c-5 -16 -24 -18 -30 -2 -4 10 0 14 14 13 10 -1 18
-6 16 -11z m3 -120 c0 -3 -4 -8 -10 -11 -5 -3 -10 -1 -10 4 0 6 5 11 10 11 6
0 10 -2 10 -4z m-4 -53 c-10 -10 -19 5 -10 18 6 11 8 11 12 0 2 -7 1 -15 -2
-18z m8184 -2333 c16 -11 31 -20 35 -20 16 0 85 -86 85 -106 0 -13 6 -29 14
-36 8 -9 12 -35 11 -78 -3 -113 -78 -229 -179 -276 -26 -12 -54 -20 -61 -18
-7 3 -16 1 -19 -4 -15 -25 -236 39 -236 68 0 4 -16 27 -35 51 -19 24 -35 52
-35 61 0 9 -5 20 -11 24 -21 13 -5 153 25 216 27 59 103 132 149 143 104 25
199 16 257 -25z"/>
</g>
</svg>
